<svg width="25" height="25" viewBox="0 0 25 25" fill="none" xmlns="http://www.w3.org/2000/svg">
<path d="M12.5 10.6634C13.5356 10.6634 14.3751 9.82394 14.3751 8.78838C14.3751 7.75282 13.5356 6.91333 12.5 6.91333C11.4645 6.91333 10.625 7.75282 10.625 8.78838C10.625 9.82394 11.4645 10.6634 12.5 10.6634Z" fill="white"/>
<path fill-rule="evenodd" clip-rule="evenodd" d="M23.4375 1.56191C24.445 2.57006 25.0006 3.9101 25.0006 5.33638V19.6636C25.0006 21.0893 24.445 22.4299 23.4375 23.4375C22.4293 24.445 21.0893 25 19.6642 25H5.33638C3.91135 25 2.57131 24.445 1.56316 23.4375C0.555639 22.4293 0 21.0893 0 19.663V5.33638C0 3.91072 0.555639 2.57006 1.56316 1.56254C2.57131 0.555014 3.91135 5.2731e-07 5.33638 5.2731e-07H19.6642C21.0893 -0.000624488 22.4293 0.554389 23.4375 1.56191ZM12.5003 4.37448C10.0834 4.37448 8.1252 6.33266 8.1252 8.74959C8.1252 11.1665 10.0834 13.1247 12.5003 13.1247C14.9172 13.1247 16.8754 11.1665 16.8754 8.74959C16.8754 6.33266 14.9172 4.37448 12.5003 4.37448ZM17.2073 20.9468C17.5979 20.543 17.5979 19.8886 17.2073 19.4849L14.6235 16.8142C15.4929 16.5673 16.3198 16.1735 17.0723 15.6316C17.5248 15.3048 17.6361 14.6604 17.3204 14.1922C17.0048 13.7241 16.3817 13.6103 15.9279 13.9353C14.9204 14.6629 13.7347 15.0473 12.5003 15.0473C11.269 15.0473 10.0859 14.6647 9.07898 13.941C8.62584 13.6147 8.00207 13.731 7.68769 14.1997C7.37206 14.6685 7.48394 15.3129 7.9377 15.6391C8.68709 16.1779 9.51149 16.5692 10.3771 16.8154L7.79332 19.4861C7.40268 19.8899 7.40268 20.5443 7.79332 20.948C7.98832 21.1493 8.24396 21.2499 8.50021 21.2499C8.75647 21.2499 9.01148 21.1493 9.20711 20.9468L12.5003 17.5423L15.7935 20.9468C15.9892 21.1493 16.2442 21.2499 16.5004 21.2499C16.7567 21.2499 17.0123 21.1493 17.2073 20.9468Z" fill="white"/>
</svg>
