<svg width="27" height="27" viewBox="0 0 27 27" fill="none" xmlns="http://www.w3.org/2000/svg">
<path d="M6.42857 0C2.88557 0 0 2.88557 0 6.42857V20.5714C0 24.1144 2.88557 27 6.42857 27H20.5714C24.1144 27 27 24.1144 27 20.5714V6.42857C27 2.88557 24.1144 0 20.5714 0H6.42857ZM9.00377 5.17048C9.40748 5.18784 9.77824 5.4153 10.002 5.76437C10.2565 6.16166 10.6516 6.77823 11.1659 7.58245C11.6352 8.31595 11.6679 9.26333 11.2487 10.0283L10.3071 11.368C10.0525 11.7306 10.0017 12.1947 10.1727 12.6035C10.4389 13.24 10.9548 14.2181 11.8715 15.1348C12.7882 16.0515 13.7663 16.5674 14.4028 16.8336C14.8116 17.0046 15.2757 16.9538 15.6383 16.6992L16.978 15.7575C17.743 15.3384 18.6903 15.3718 19.4238 15.8404C20.2281 16.3547 20.8446 16.7498 21.2419 17.0043C21.591 17.2281 21.8185 17.5988 21.8358 18.0025C21.9348 20.2937 20.1598 21.2218 19.6436 21.2218C19.2861 21.2218 14.9891 21.7102 10.1426 16.8637C5.29609 12.0172 5.78447 7.72016 5.78447 7.36273C5.78447 6.84652 6.71262 5.07148 9.00377 5.17048Z" fill="white"/>
</svg>
