<svg width="68" height="62" viewBox="0 0 68 62" fill="none" xmlns="http://www.w3.org/2000/svg">
<path fill-rule="evenodd" clip-rule="evenodd" d="M50.2377 62H0.015571L0.00161264 58.7143C-0.0151374 54.08 -0.0290954 49.7104 7.01428 48.0661C12.1426 46.8667 16.1235 44.6002 17.1592 42.2887C17.5891 41.3258 17.5137 40.3291 16.9303 39.2424C12.1286 30.275 11.2241 22.3916 14.3871 17.045C16.5367 13.4074 20.4534 11.3211 25.1266 11.3211C29.7664 11.3211 33.6552 13.3764 35.7964 16.9577C38.9565 22.2396 38.0799 30.1483 33.3285 39.2283C32.7534 40.3291 32.6892 41.3399 33.1303 42.3112C34.1744 44.6171 38.1441 46.878 43.2362 48.0661C50.2879 49.7132 50.2684 54.111 50.2488 58.7678L50.2377 62ZM2.79607 59.1845H47.4572V58.7622C47.4795 53.6971 47.2506 51.8924 42.6108 50.8084C40.3272 50.2763 32.7199 48.1759 30.5899 43.4853C29.7887 41.7115 29.8808 39.7857 30.8607 37.9134C35.1347 29.7429 36.0392 22.8168 33.4067 18.4133C31.7596 15.657 28.8172 14.1366 25.1266 14.1366C21.4053 14.1366 18.4434 15.6823 16.7851 18.4865C14.1442 22.9491 15.071 29.8442 19.3869 37.9022C20.3836 39.7632 20.4924 41.6806 19.7024 43.4459C17.5947 48.1562 9.93995 50.2735 7.6424 50.8084C3.00545 51.8924 2.77653 53.683 2.79328 58.6974L2.79607 59.1845ZM39.4981 28.2141C40.5143 25.6745 41.2904 22.9097 41.2234 20.1899C39.8415 18.1684 39.0849 15.6851 39.0849 13.1455C39.0849 5.89846 45.3467 0 53.0433 0C60.7399 0 67.0016 5.89846 67.0016 13.1455C67.0016 19.4438 61.703 26.2404 53.1382 26.2404C51.8233 26.2404 50.4777 26.0771 49.121 25.7505C47.4348 26.5135 43.0212 28.3746 39.4981 28.2141ZM53.0433 2.81549C46.8849 2.81549 41.8766 7.4498 41.8766 13.1455C41.8766 15.2487 43.4483 18.6358 43.9676 19.3678C43.9983 20.3222 43.8838 23.2588 43.2166 25.0889C45.2964 24.4948 47.6972 23.4108 48.6659 22.8506C50.0394 23.2278 51.8792 23.4249 53.1382 23.4249C59.975 23.4249 64.2099 18.0896 64.2099 13.1455C64.2099 7.4498 59.2017 2.81549 53.0433 2.81549ZM53.0405 3.86849L50.3158 9.53889L44.1267 10.3976L48.6352 14.7673L47.5325 20.9726L53.0405 17.9966L58.5484 20.9698L57.4513 14.7673L61.9543 10.3976L55.7652 9.53889L53.0405 3.86849ZM51.6447 13.779L50.2153 12.3966L52.1751 12.1235L53.0405 10.3244L53.9059 12.1235L55.8684 12.3966L54.4419 13.779L54.7909 15.7471L53.0405 14.8039L51.2957 15.7442L51.6447 13.779Z" fill="#056B6E"/>
</svg>
