<svg width="51" height="67" viewBox="0 0 51 67" fill="none" xmlns="http://www.w3.org/2000/svg">
<path fill-rule="evenodd" clip-rule="evenodd" d="M25.375 0C16.0111 8.00092 10.1417 8.375 0.375 8.375V40.5769C0.375 53.4269 9.27222 56.7797 25.375 67C41.4778 56.7797 50.375 53.4269 50.375 40.5769V8.375C40.6083 8.375 34.7389 8.00092 25.375 0ZM25.375 3.60683C33.5472 10.0556 39.5972 11.0187 47.5972 11.1471V40.5769C47.5972 51.4393 40.2694 54.3761 25.375 63.703C10.4444 54.351 3.15278 51.3806 3.15278 40.5769V11.1471C11.1528 11.0187 17.2028 10.0556 25.375 3.60683ZM39.2639 25.2115L22.6194 43.7008L12.4194 32.7267L14.3667 30.82L22.7222 39.7087L37.2417 23.2992L39.2639 25.2115Z" fill="#056B6E"/>
</svg>
