<svg width="67" height="50" viewBox="0 0 67 50" fill="none" xmlns="http://www.w3.org/2000/svg">
<path fill-rule="evenodd" clip-rule="evenodd" d="M61.4167 0C62.8963 0 64.3172 0.586111 65.3641 1.62778C66.411 2.66944 67 4.08333 67 5.55556V44.4444C67 45.9167 66.411 47.3306 65.3641 48.3722C64.3172 49.4139 62.8963 50 61.4167 50H5.58333C4.10375 50 2.68279 49.4139 1.63592 48.3722C0.589042 47.3306 0 45.9167 0 44.4444V5.55556C0 4.08333 0.589042 2.66944 1.63592 1.62778C2.68279 0.586111 4.10375 0 5.58333 0H61.4167ZM64.2083 22.2222H2.79167V44.4444C2.79167 45.9778 4.04233 47.2222 5.58333 47.2222H61.4167C62.9577 47.2222 64.2083 45.9778 64.2083 44.4444V22.2222ZM22.3333 36.1111V38.8889H8.375V36.1111H22.3333ZM58.625 30.5556V33.3333H50.25V30.5556H58.625ZM30.7083 30.5556V33.3333H8.375V30.5556H30.7083ZM2.79167 13.8889V19.4444H64.2083V13.8889H2.79167ZM64.2083 11.1111V5.55556C64.2083 4.02222 62.9577 2.77778 61.4167 2.77778H5.58333C4.04233 2.77778 2.79167 4.02222 2.79167 5.55556V11.1111H64.2083Z" fill="#056B6E"/>
</svg>
