<svg width="25" height="25" viewBox="0 0 25 25" fill="none" xmlns="http://www.w3.org/2000/svg">
<path d="M12.5 0C5.60625 0 0 5.60625 0 12.5C0 14.4937 0.48125 16.4625 1.39375 18.2312L0.0562501 23.0188C-0.0937499 23.5625 0.0625 24.1438 0.45625 24.5438C0.75625 24.8375 1.15625 25 1.5625 25C1.70625 25 1.84375 24.9813 1.98125 24.9438L6.76875 23.6063C8.5375 24.5188 10.5125 25 12.5 25C19.3937 25 25 19.3937 25 12.5C25 5.60625 19.3937 0 12.5 0ZM18.975 17.1063C18.7 17.875 17.35 18.6188 16.7438 18.675C16.1375 18.7313 15.5688 18.95 12.7812 17.85C9.41875 16.525 7.29375 13.0813 7.13125 12.8562C6.9625 12.6375 5.78125 11.0688 5.78125 9.4375C5.78125 7.8125 6.6375 7.0125 6.9375 6.68125C7.24375 6.35 7.6 6.26875 7.81875 6.26875C8.04375 6.26875 8.2625 6.26875 8.45625 6.275C8.6875 6.2875 8.95 6.3 9.2 6.85C9.49375 7.5 10.1375 9.1375 10.2188 9.30625C10.3 9.46875 10.3562 9.6625 10.2437 9.88125C10.1375 10.1 10.0813 10.2375 9.9125 10.4313C9.75 10.625 9.56875 10.8625 9.41875 11.0125C9.25625 11.175 9.08125 11.3563 9.275 11.6875C9.46875 12.0188 10.1313 13.1 11.1125 13.975C12.375 15.1 13.4375 15.45 13.7688 15.6187C14.1 15.7812 14.2937 15.7563 14.4875 15.5312C14.6813 15.3125 15.3125 14.5688 15.5375 14.2375C15.7563 13.9062 15.975 13.9625 16.2812 14.075C16.5812 14.1813 18.2062 14.9812 18.5375 15.15C18.8687 15.3125 19.0875 15.3938 19.1687 15.5312C19.25 15.6687 19.25 16.3313 18.975 17.1063Z" fill="white"/>
</svg>
