<svg width="25" height="25" viewBox="0 0 25 25" fill="none" xmlns="http://www.w3.org/2000/svg">
<path d="M3.81944 0C1.72238 0 0 1.72238 0 3.81944V21.1806C0 23.2776 1.72238 25 3.81944 25H21.1806C23.2776 25 25 23.2776 25 21.1806V3.81944C25 1.72238 23.2776 0 21.1806 0H3.81944ZM4.78516 7.63889H6.61757C7.0759 7.63889 7.2564 7.84049 7.43001 8.38216C8.24946 11.1113 9.46495 13.1944 10.083 13.1944C10.3122 13.1944 10.4167 13.084 10.4167 12.4729V9.95823C10.3472 8.65962 9.72222 8.54905 9.72222 8.08377C9.72222 7.86155 9.86746 7.6389 10.1522 7.6389H13.3816C13.7705 7.6389 13.8889 7.86096 13.8889 8.34013V11.9439C13.8889 12.3536 14.2008 12.5 14.3188 12.5C14.548 12.5 14.7633 12.5145 15.1869 12.07C16.4925 10.5284 17.6324 8.19499 17.6324 8.19499C17.7504 7.91722 17.9648 7.6389 18.4231 7.6389H20.2433C20.653 7.6389 20.8194 7.81885 20.8333 8.06885C20.8403 8.15913 20.8191 8.2563 20.7913 8.36047C20.5621 9.46463 18.2292 12.7435 18.2292 12.7713C18.125 12.9449 18.0625 13.0695 18.0555 13.1945C18.0486 13.3195 18.0972 13.4439 18.2292 13.6244C18.4236 13.9022 18.8403 14.4167 19.2708 14.9306C20.0417 15.8611 20.6593 16.8403 20.7913 17.2431C20.826 17.3473 20.8333 17.4445 20.8333 17.5347C20.8264 17.882 20.5828 18.0556 20.1592 18.0556H18.3404C17.6529 18.0556 17.4311 17.375 16.2367 15.9722C15.195 14.757 14.6533 14.5833 14.3894 14.5833C14.0144 14.5833 13.8889 14.6734 13.8889 15.229V17.2987C13.8889 17.7571 13.7711 18.0556 12.6044 18.0556C10.6808 18.0556 8.50753 16.7506 6.8617 14.5006C4.58392 11.3825 4.16666 8.68024 4.16666 8.17329C4.16666 7.89551 4.25738 7.63889 4.78516 7.63889Z" fill="white"/>
</svg>
