<svg width="46" height="46" viewBox="0 0 46 46" fill="none" xmlns="http://www.w3.org/2000/svg">
<path d="M23.6301 7.04082L39.0685 9.85714" stroke="#8785D3" stroke-width="0.630137"/>
<path d="M23.6301 7.04082L17.4863 17.5238" stroke="#8785D3" stroke-width="0.630137"/>
<path d="M12.7603 10.9524L17.1712 17.0544" stroke="#8785D3" stroke-width="0.630137"/>
<path d="M17.1712 17.0544L38.9109 9.85714" stroke="#8785D3" stroke-width="0.630137"/>
<path d="M38.911 9.85714L30.8767 18.1497" stroke="#8785D3" stroke-width="0.630137"/>
<path d="M17.1712 17.2109L30.8767 18.3061" stroke="#8785D3" stroke-width="0.630137"/>
<path d="M30.8767 18.3061L34.0274 29.8844" stroke="#8785D3" stroke-width="0.630137"/>
<path d="M30.8767 18.3061L44.2671 19.8707" stroke="#8785D3" stroke-width="0.630137"/>
<path d="M30.8767 18.3061L20.3219 29.102" stroke="#8785D3" stroke-width="0.630137"/>
<path d="M17.1712 17.2109L20.4794 29.102" stroke="#8785D3" stroke-width="0.630137"/>
<path d="M5.98631 22.3742L20.3219 29.102" stroke="#8785D3" stroke-width="0.630137"/>
<path d="M20.3219 29.102L18.589 44.1225" stroke="#8785D3" stroke-width="0.630137"/>
<path d="M11.8151 33.483L18.4315 44.2789" stroke="#8785D3" stroke-width="0.630137"/>
<path d="M11.8151 33.483L7.71918 38.1769" stroke="#8785D3" stroke-width="0.630137"/>
<path d="M2.36301 29.415L11.6575 33.483" stroke="#8785D3" stroke-width="0.630137"/>
<path d="M27.0959 36.2993L18.589 43.966" stroke="#8785D3" stroke-width="0.630137"/>
<path d="M27.0959 36.4558L32.2945 42.4014" stroke="#8785D3" stroke-width="0.630137"/>
<path d="M33.8699 30.0408L32.4521 42.4014" stroke="#8785D3" stroke-width="0.630137"/>
<path d="M38.2808 38.9592L33.8699 30.0408L42.3767 33.0136" stroke="#8785D3" stroke-width="0.630137"/>
<path d="M17.1712 17.0544L6.14384 22.3742" stroke="#8785D3" stroke-width="0.630137"/>
<path d="M1.89041 17.3673L12.7603 10.9524L23.6301 7.04082L30.089 2.65986" stroke="#8785D3" stroke-width="0.630137"/>
<path d="M18.7466 1.72109L23.6301 7.04082" stroke="#8785D3" stroke-width="0.630137"/>
<path d="M18.7466 1.72109L12.7603 10.9524" stroke="#8785D3" stroke-width="0.630137"/>
<path d="M7.87671 7.35374L12.7603 10.9524" stroke="#8785D3" stroke-width="0.630137"/>
<path d="M12.9178 10.9524L5.98631 22.5306" stroke="#8785D3" stroke-width="0.630137"/>
<path d="M1.89041 17.3673L6.14384 22.5306" stroke="#8785D3" stroke-width="0.630137"/>
<path d="M5.9863 22.3742L2.20547 28.9456" stroke="#8785D3" stroke-width="0.630137"/>
<path d="M5.98631 22.3742L11.8151 33.483" stroke="#8785D3" stroke-width="0.630137"/>
<path d="M11.8151 33.483L20.3219 29.102" stroke="#8785D3" stroke-width="0.630137"/>
<path d="M20.3219 29.102L27.0959 36.2993" stroke="#8785D3" stroke-width="0.630137"/>
<path d="M27.0959 36.2993L34.0274 29.8844" stroke="#8785D3" stroke-width="0.630137"/>
<path d="M34.0274 29.8844L44.4247 19.8708" stroke="#8785D3" stroke-width="0.630137"/>
<ellipse cx="1.73288" cy="17.3673" rx="1.73288" ry="1.72109" fill="#8785D3"/>
<ellipse cx="17.1712" cy="17.0544" rx="1.73288" ry="1.72109" fill="#8785D3"/>
<ellipse cx="6.14384" cy="22.6871" rx="1.73288" ry="1.72109" fill="#8785D3"/>
<ellipse cx="38.2808" cy="38.9592" rx="1.73288" ry="1.72109" fill="#8785D3"/>
<ellipse cx="33.8699" cy="29.8844" rx="1.73288" ry="1.72109" fill="#8785D3"/>
<ellipse cx="38.911" cy="9.85714" rx="1.73288" ry="1.72109" fill="#8785D3"/>
<path d="M18.9041 1.72109L7.71918 7.35374L1.89041 17.3673L2.36301 29.7279L7.71918 38.0204L18.4315 44.2789L32.4521 42.4014L38.2808 38.9592L42.5342 33.0136L44.4247 19.8707L38.911 9.85714L30.089 2.65987L18.9041 1.72109Z" stroke="#8785D3" stroke-width="0.630137"/>
<ellipse cx="44.2671" cy="19.8707" rx="1.73288" ry="1.72109" fill="#8785D3"/>
<ellipse cx="42.3767" cy="33.0136" rx="1.73288" ry="1.72109" fill="#8785D3"/>
<ellipse cx="32.2945" cy="42.4014" rx="1.73288" ry="1.72109" fill="#8785D3"/>
<ellipse cx="27.2534" cy="36.1429" rx="1.73288" ry="1.72109" fill="#8785D3"/>
<ellipse cx="18.4315" cy="44.2789" rx="1.73288" ry="1.72109" fill="#8785D3"/>
<ellipse cx="7.71919" cy="38.0204" rx="1.73288" ry="1.72109" fill="#8785D3"/>
<ellipse cx="2.363" cy="29.5714" rx="1.73288" ry="1.72109" fill="#8785D3"/>
<ellipse cx="11.8151" cy="33.6395" rx="1.73288" ry="1.72109" fill="#8785D3"/>
<ellipse cx="20.3219" cy="28.9456" rx="1.73288" ry="1.72109" fill="#8785D3"/>
<ellipse cx="30.7192" cy="17.9932" rx="1.73288" ry="1.72109" fill="#8785D3"/>
<ellipse cx="30.089" cy="2.65986" rx="1.73288" ry="1.72109" fill="#8785D3"/>
<ellipse cx="23.4726" cy="7.04082" rx="1.73288" ry="1.72109" fill="#8785D3"/>
<ellipse cx="18.7466" cy="1.72109" rx="1.73288" ry="1.72109" fill="#8785D3"/>
<ellipse cx="7.71919" cy="7.35374" rx="1.73288" ry="1.72109" fill="#8785D3"/>
<ellipse cx="12.7603" cy="10.7959" rx="1.73288" ry="1.72109" fill="#8785D3"/>
</svg>
